<svg width="262" height="262" viewBox="0 0 262 262" fill="none" xmlns="http://www.w3.org/2000/svg">
<path fill-rule="evenodd" clip-rule="evenodd" d="M258.049 162.949C257.296 165.934 256.439 168.885 255.482 171.797L86.5839 7.76885C89.4598 6.73636 92.3891 5.79844 95.3689 4.95946L258.049 162.949ZM81.5557 9.69188C82.8719 9.15714 84.2001 8.64256 85.5402 8.14858L255.131 172.85C254.675 174.199 254.197 175.539 253.698 176.87L81.5557 9.69188ZM260.166 152.898C260.731 149.572 261.168 146.213 261.474 142.826L115.388 0.95262C112.055 1.35651 108.712 1.89078 105.365 2.55914L260.166 152.898ZM104.179 2.80139C101.58 3.34489 99.0147 3.9621 96.4854 4.65038L258.327 161.826C258.948 159.27 259.492 156.69 259.959 154.089L104.179 2.80139ZM260.703 112.766C261.294 116.94 261.679 121.1 261.866 125.237L132.924 0.0123783C137.117 0.0699172 141.278 0.329685 145.396 0.783974L260.703 112.766ZM116.67 0.80372C121.635 0.251422 126.577 -0.0122173 131.477 0.000565249L261.924 126.686C262.095 131.68 261.977 136.638 261.584 141.539L116.67 0.80372ZM256.143 92.3214C254.186 85.9646 251.776 79.8478 248.955 74L184.57 11.4717C178.572 8.77704 172.356 6.52653 165.974 4.75298L256.143 92.3214ZM163.989 4.21799C158.445 2.77101 152.78 1.68272 147.027 0.974318L260.462 111.139C260.14 109.05 259.766 106.958 259.34 104.864C258.609 101.272 257.736 97.7443 256.731 94.2856L163.989 4.21799ZM237.423 54.6006C228.337 41.9592 217.112 31.1237 204.386 22.5163L237.423 54.6006ZM187.313 12.7416C191.694 14.832 195.953 17.1621 200.07 19.7184L240.329 58.8162C242.973 62.8184 245.409 66.9865 247.618 71.3083L187.313 12.7416ZM80.5477 10.1063L253.311 177.888C252.266 180.608 251.131 183.289 249.91 185.927L72.6009 13.7299C75.1964 12.4395 77.8462 11.2303 80.5477 10.1063ZM71.6552 14.2049L249.462 186.885C248.049 189.874 246.525 192.807 244.893 195.677L62.9944 19.0231C65.8071 17.3148 68.6953 15.7068 71.6552 14.2049ZM232.877 213.318C235.179 210.465 237.361 207.518 239.416 204.486L54.3509 24.7569C51.3722 26.9086 48.4942 29.1793 45.7226 31.5606L232.877 213.318ZM55.1766 24.1654L239.983 203.643C241.522 201.333 242.989 198.975 244.38 196.572L62.1148 19.5622C59.7468 21.0263 57.4333 22.5619 55.1766 24.1654ZM226.202 220.965C225.315 221.906 224.413 222.834 223.497 223.749L35.5877 41.2585C36.4732 40.3154 37.3731 39.385 38.2871 38.4675L226.202 220.965ZM226.886 220.235L38.9953 37.762C40.9241 35.8552 42.9144 34.0058 44.9641 32.2173L232.244 214.097C230.523 216.196 228.736 218.243 226.886 220.235ZM213.038 233.133C214.053 232.316 215.055 231.485 216.044 230.64L28.9304 48.9212C28.1148 49.9366 27.3144 50.9639 26.5296 52.0026L213.038 233.133ZM29.5619 48.1411L216.804 229.985C218.858 228.201 220.853 226.356 222.787 224.453L34.9061 41.99C33.0602 43.9861 31.278 46.0377 29.5619 48.1411ZM204.79 239.251C202.109 241.08 199.351 242.815 196.52 244.449L15.7074 68.8494C17.2549 65.9824 18.9078 63.1746 20.6621 60.4322L204.79 239.251ZM205.63 238.673L21.2148 59.5755C22.7137 57.2718 24.2846 55.0151 25.9251 52.809L212.251 233.762C210.101 235.464 207.893 237.103 205.63 238.673ZM176.141 253.969C179.878 252.602 183.523 251.076 187.07 249.399L11.0265 78.4315C9.4423 82.0386 8.01802 85.7223 6.76076 89.472L176.141 253.969ZM11.4588 77.4579L188.032 248.94C190.614 247.694 193.143 246.368 195.618 244.965L15.217 69.7665C13.8823 72.2868 12.6287 74.852 11.4588 77.4579ZM165.171 257.443C162.636 258.125 160.064 258.737 157.459 259.274L1.97671 108.275C2.43667 105.668 2.97496 103.082 3.58953 100.52L165.171 257.443ZM166.29 257.136L3.86495 99.3943C4.61088 96.4027 5.46102 93.4452 6.41208 90.5267L175.095 254.346C172.213 255.372 169.277 256.304 166.29 257.136ZM139.827 261.692C141.527 261.575 143.23 261.424 144.936 261.24L0.385249 120.857C0.253876 122.56 0.155756 124.27 0.0914217 125.985L139.827 261.692ZM0.491275 119.567L146.221 261.094C149.562 260.7 152.914 260.174 156.271 259.513L1.77174 109.469C1.21554 112.804 0.787301 116.172 0.491275 119.567ZM125.483 261.889C120.358 261.677 115.286 261.163 110.289 260.362L2.34284 155.529C1.37426 150.455 0.712971 145.393 0.346085 140.36L125.483 261.889ZM126.972 261.942L0.245951 138.87C0.00835867 135.003 -0.055744 131.156 0.0477801 127.336L138.481 261.777C134.622 262.003 130.783 262.056 126.972 261.942ZM2.68385 157.253L108.556 260.073C103.307 259.158 98.1434 257.927 93.091 256.395L6.78663 172.579C5.13295 167.618 3.75817 162.505 2.68385 157.253ZM7.50243 174.667L90.9754 255.733C80.2763 252.289 70.0977 247.491 60.6841 241.499L22.485 204.401C16.3352 195.317 11.2671 185.357 7.50243 174.667ZM25.6436 208.862C34.1711 220.385 44.495 230.36 56.1156 238.455L25.6436 208.862Z" fill="url(#paint0_linear_19_156)" fill-opacity="0.5"/>
<defs>
<linearGradient id="paint0_linear_19_156" x1="209.399" y1="27.0629" x2="43.9317" y2="229.201" gradientUnits="userSpaceOnUse">
<stop stop-color="#FF662C"/>
<stop offset="0.515625" stop-color="#2275ED"/>
<stop offset="1" stop-color="#373737"/>
</linearGradient>
</defs>
</svg>
